<svg width="14" height="14" viewBox="0 0 14 14" fill="none" xmlns="http://www.w3.org/2000/svg">
<path id="Vector" d="M2.5 1C2.89783 1 3.27936 1.15804 3.56066 1.43934C3.84197 1.72065 4 2.10218 4 2.5V4H2.5C2.30302 4 2.10796 3.9612 1.92598 3.88582C1.74399 3.81044 1.57863 3.69995 1.43934 3.56066C1.30005 3.42137 1.18956 3.25601 1.11418 3.07403C1.0388 2.89204 1 2.69698 1 2.5C1 2.30302 1.0388 2.10796 1.11418 1.92598C1.18956 1.74399 1.30005 1.57863 1.43934 1.43934C1.57863 1.30005 1.74399 1.18956 1.92598 1.11418C2.10796 1.0388 2.30302 1 2.5 1V1ZM5 4V2.5C5 2.00555 4.85338 1.5222 4.57867 1.11108C4.30397 0.699953 3.91352 0.379521 3.45671 0.190302C2.99989 0.00108321 2.49723 -0.0484251 2.01228 0.0480379C1.52732 0.144501 1.08187 0.382603 0.732234 0.732234C0.382603 1.08187 0.144501 1.52732 0.0480379 2.01228C-0.0484251 2.49723 0.00108321 2.99989 0.190302 3.45671C0.379521 3.91352 0.699953 4.30397 1.11108 4.57867C1.5222 4.85338 2.00555 5 2.5 5H4V9H2.5C2.00555 9 1.5222 9.14662 1.11108 9.42133C0.699953 9.69603 0.379521 10.0865 0.190302 10.5433C0.00108321 11.0001 -0.0484251 11.5028 0.0480379 11.9877C0.144501 12.4727 0.382603 12.9181 0.732234 13.2678C1.08187 13.6174 1.52732 13.8555 2.01228 13.952C2.49723 14.0484 2.99989 13.9989 3.45671 13.8097C3.91352 13.6205 4.30397 13.3 4.57867 12.8889C4.85338 12.4778 5 11.9945 5 11.5V10H9V11.5C9 11.9945 9.14662 12.4778 9.42133 12.8889C9.69603 13.3 10.0865 13.6205 10.5433 13.8097C11.0001 13.9989 11.5028 14.0484 11.9877 13.952C12.4727 13.8555 12.9181 13.6174 13.2678 13.2678C13.6174 12.9181 13.8555 12.4727 13.952 11.9877C14.0484 11.5028 13.9989 11.0001 13.8097 10.5433C13.6205 10.0865 13.3 9.69603 12.8889 9.42133C12.4778 9.14662 11.9945 9 11.5 9H10V5H11.5C11.9945 5 12.4778 4.85338 12.8889 4.57867C13.3 4.30397 13.6205 3.91352 13.8097 3.45671C13.9989 2.99989 14.0484 2.49723 13.952 2.01228C13.8555 1.52732 13.6174 1.08187 13.2678 0.732234C12.9181 0.382603 12.4727 0.144501 11.9877 0.0480379C11.5028 -0.0484251 11.0001 0.00108321 10.5433 0.190302C10.0865 0.379521 9.69603 0.699953 9.42133 1.11108C9.14662 1.5222 9 2.00555 9 2.5V4H5ZM9 5V9H5V5H9ZM10 4V2.5C10 2.20333 10.088 1.91332 10.2528 1.66665C10.4176 1.41997 10.6519 1.22771 10.926 1.11418C11.2001 1.00065 11.5017 0.970945 11.7926 1.02882C12.0836 1.0867 12.3509 1.22956 12.5607 1.43934C12.7704 1.64912 12.9133 1.91639 12.9712 2.20737C13.0291 2.49834 12.9994 2.79994 12.8858 3.07403C12.7723 3.34812 12.58 3.58238 12.3334 3.74721C12.0867 3.91203 11.7967 4 11.5 4H10ZM10 10H11.5C11.7967 10 12.0867 10.088 12.3334 10.2528C12.58 10.4176 12.7723 10.6519 12.8858 10.926C12.9994 11.2001 13.0291 11.5017 12.9712 11.7926C12.9133 12.0836 12.7704 12.3509 12.5607 12.5607C12.3509 12.7704 12.0836 12.9133 11.7926 12.9712C11.5017 13.0291 11.2001 12.9994 10.926 12.8858C10.6519 12.7723 10.4176 12.58 10.2528 12.3334C10.088 12.0867 10 11.7967 10 11.5V10ZM4 10V11.5C4 11.7967 3.91203 12.0867 3.74721 12.3334C3.58238 12.58 3.34812 12.7723 3.07403 12.8858C2.79994 12.9994 2.49834 13.0291 2.20737 12.9712C1.91639 12.9133 1.64912 12.7704 1.43934 12.5607C1.22956 12.3509 1.0867 12.0836 1.02882 11.7926C0.970945 11.5017 1.00065 11.2001 1.11418 10.926C1.22771 10.6519 1.41997 10.4176 1.66665 10.2528C1.91332 10.088 2.20333 10 2.5 10H4Z" fill="#87888C"/>
</svg>
