<svg width="13" height="13" viewBox="0 0 13 13" fill="none" xmlns="http://www.w3.org/2000/svg">
<path id="Vector" d="M5.20009 0.225333C5.28469 0.32171 5.33652 0.439657 5.34888 0.563935C5.36124 0.688212 5.33356 0.813109 5.26942 0.922488C4.76836 1.78497 4.50669 2.75174 4.50848 3.73386C4.50848 7.00105 7.34946 9.64666 10.8509 9.64666C11.3076 9.64666 11.7522 9.60198 12.1795 9.51666C12.3105 9.49007 12.4469 9.50024 12.5717 9.5459C12.6966 9.59157 12.8043 9.6707 12.8815 9.77342C12.9629 9.88023 13.0045 10.0093 12.9996 10.1405C12.9948 10.2717 12.9438 10.3978 12.8546 10.499C12.1749 11.2818 11.3173 11.9126 10.3446 12.3452C9.37179 12.7779 8.30829 13.0016 7.23159 13C3.23619 13 0 9.98224 0 6.26409C0 3.46572 1.83216 1.06549 4.44088 0.0482011C4.57082 -0.00328768 4.71508 -0.0138555 4.85199 0.0180851C4.98889 0.0500256 5.11104 0.12275 5.20009 0.225333ZM4.21034 1.06468C3.20724 1.56913 2.36867 2.31894 1.78374 3.23444C1.19882 4.14994 0.889389 5.19691 0.888349 6.26409C0.888349 9.53047 3.7302 12.1761 7.23159 12.1761C8.07006 12.1774 8.90049 12.0229 9.67481 11.7213C10.4491 11.4198 11.152 10.9773 11.7427 10.4194C11.4506 10.4535 11.1533 10.4706 10.8509 10.4706C6.85545 10.4706 3.62013 7.45282 3.62013 3.73467C3.62013 2.78644 3.82987 1.88372 4.21034 1.06468Z" fill="#87888C"/>
</svg>
