<svg width="16" height="16" viewBox="0 0 16 16" fill="none" xmlns="http://www.w3.org/2000/svg">
<path d="M8.03753 8.80771e-05C5.91726 -0.00985428 3.87977 0.822301 2.37271 2.31372C0.865644 3.80514 0.0122886 5.83383 0.000132376 7.95406C-0.00591108 9.00461 0.195031 10.0461 0.591485 11.019C0.987939 11.9919 1.57214 12.8772 2.31073 13.6243C3.04933 14.3714 3.92785 14.9657 4.89614 15.3733C5.86443 15.7809 6.90352 15.9938 7.95408 15.9999C9.00466 16.0059 10.0461 15.8049 11.019 15.4085C11.9919 15.012 12.8772 14.4278 13.6244 13.6892C14.3715 12.9506 14.9658 12.072 15.3734 11.1038C15.781 10.1355 15.9939 9.09637 15.9999 8.0458C16.012 5.92417 15.1809 3.88459 13.6892 2.37575C12.1976 0.866916 10.1677 0.0124028 8.04603 0.000192233C8.0432 0.000156099 8.04036 0.000121197 8.03753 8.80771e-05ZM8.44071 0.911444C9.28277 1.05977 10.0844 1.75879 10.712 2.91452C10.9145 3.2872 11.0948 3.70494 11.2504 4.15775L8.42221 4.14153L8.44071 0.911444ZM7.64071 0.938367L7.62195 4.13693L4.94213 4.12165C5.10277 3.67075 5.28784 3.25484 5.4944 2.88485C6.09781 1.80381 6.85048 1.12988 7.64031 0.938596L7.64071 0.938367ZM5.79608 1.14453C5.42223 1.51872 5.08562 1.97567 4.79594 2.49474C4.52449 2.98137 4.28993 3.52641 4.09648 4.1166L1.94361 4.1043C2.8464 2.70126 4.20818 1.65506 5.79648 1.1443L5.79608 1.14453ZM10.5015 1.2456C11.9912 1.79841 13.2564 2.82797 14.1005 4.17417L12.0949 4.16266C11.9088 3.57016 11.6811 3.02225 11.4151 2.53265C11.1498 2.04393 10.8425 1.60955 10.5015 1.2456ZM1.4987 4.90169L3.86793 4.91523C3.66398 5.74005 3.53653 6.63471 3.50014 7.57419L0.813864 7.55868C0.868822 6.63712 1.10133 5.73485 1.49859 4.90149L1.4987 4.90169ZM4.69441 4.92L7.61763 4.93676L7.60234 7.5978L4.30111 7.57865C4.3406 6.62946 4.47858 5.73109 4.69441 4.92ZM8.41769 4.94147L11.4887 4.95918C11.6955 5.77255 11.8233 6.67238 11.8516 7.622L8.40229 7.60232L8.41769 4.94147ZM12.3144 4.9639L14.5366 4.97654C14.9242 5.81436 15.1463 6.71917 15.1907 7.64124L12.6507 7.62678C12.6252 6.68712 12.5084 5.79093 12.3144 4.9639ZM0.809345 8.35862L3.49112 8.37409C3.5064 9.31119 3.612 10.2072 3.79502 11.0367L1.46351 11.0235C1.07584 10.1856 0.853713 9.28076 0.809345 8.35862ZM4.29118 8.37881L7.59783 8.39774L7.58243 11.0586L4.61926 11.0417C4.42479 10.2244 4.30815 9.32523 4.29118 8.37881ZM8.39777 8.40226L11.8522 8.42214C11.8246 9.36848 11.6975 10.2661 11.4937 11.0811L8.38237 11.0631L8.39777 8.40226ZM12.6498 8.4267L15.1859 8.44129C15.131 9.36281 14.8986 10.265 14.5014 11.0984L12.3167 11.0857C12.5089 10.2585 12.6237 9.36342 12.6498 8.4267ZM1.89958 11.8259L4.00132 11.8379C4.19618 12.4926 4.44206 13.0949 4.73214 13.6285C4.95954 14.0475 5.21831 14.4262 5.50218 14.7556C4.01102 14.2031 2.74439 13.1731 1.89958 11.8259ZM4.84267 11.8428L7.57791 11.8585L7.55879 15.1858C7.50956 15.1828 7.46091 15.1777 7.41193 15.1738C6.67882 14.9298 5.98915 14.2665 5.43516 13.2466C5.20905 12.8303 5.00928 12.3581 4.84267 11.8428ZM8.37786 11.863L11.2611 11.8796C11.0886 12.3931 10.8836 12.8627 10.6526 13.2764C10.0984 14.2694 9.4182 14.9189 8.69924 15.1666C8.58662 15.1773 8.4728 15.1849 8.35885 15.1905L8.37786 11.863ZM12.102 11.8846L14.0562 11.8957C13.2398 13.164 12.0462 14.1443 10.6435 14.6987C10.9119 14.3781 11.149 14.0324 11.3513 13.6664C11.6472 13.1363 11.9001 12.5369 12.102 11.8846Z" fill="#87888C"/>
</svg>
