<svg width="14" height="12" viewBox="0 0 14 12" fill="none" xmlns="http://www.w3.org/2000/svg">
<g id="Vector">
<path d="M9.45005 8.99996C9.37237 9.00118 9.29649 8.97249 9.23402 8.91828C9.17156 8.86407 9.12595 8.78732 9.10418 8.69979C9.08241 8.61227 9.08568 8.51878 9.11349 8.43364C9.1413 8.3485 9.19212 8.27641 9.25816 8.22839C9.58151 7.99151 9.84708 7.66037 10.029 7.26723C10.2109 6.87409 10.3029 6.43236 10.2961 5.98507C10.2893 5.53777 10.1839 5.10017 9.99018 4.7149C9.79645 4.32962 9.52099 4.00981 9.19064 3.78662C9.14817 3.76055 9.11064 3.72467 9.08029 3.68113C9.04995 3.63759 9.02742 3.58729 9.01407 3.53327C9.00072 3.47925 8.99681 3.42261 9.00259 3.36678C9.00837 3.31094 9.02372 3.25705 9.0477 3.20835C9.07168 3.15965 9.10381 3.11715 9.14216 3.0834C9.1805 3.04965 9.22426 3.02536 9.27081 3.01198C9.31736 2.99859 9.36574 2.9964 9.41303 3.00553C9.46032 3.01466 9.50555 3.03492 9.546 3.0651C9.98093 3.36109 10.3433 3.78397 10.598 4.29272C10.8527 4.80147 10.991 5.37884 10.9996 5.96881C11.0082 6.55879 10.8867 7.14136 10.647 7.66002C10.4072 8.17868 10.0574 8.61582 9.63128 8.92906C9.57752 8.97167 9.51484 8.99619 9.45005 8.99996Z" fill="#87888C"/>
<path d="M10.4972 11.9989C10.4052 11.9983 10.316 11.9633 10.244 11.8995C10.172 11.8357 10.1212 11.7468 10.0999 11.647C10.0786 11.5473 10.088 11.4424 10.1265 11.3493C10.165 11.2562 10.2304 11.1801 10.3123 11.1334C11.1742 10.66 11.8989 9.92548 12.4034 9.01399C12.9078 8.1025 13.1715 7.05099 13.1642 5.98008C13.1569 4.90917 12.8789 3.86224 12.3622 2.95939C11.8454 2.05654 11.1107 1.33434 10.2424 0.875625C10.1923 0.850533 10.1473 0.814503 10.1099 0.769664C10.0725 0.724825 10.0436 0.672088 10.0248 0.614571C10.006 0.557053 9.99775 0.495921 10.0005 0.434789C10.0033 0.373658 10.017 0.313767 10.0409 0.258656C10.0648 0.203546 10.0984 0.154335 10.1397 0.113932C10.1809 0.0735293 10.229 0.0427546 10.2811 0.0234274C10.3332 0.00410006 10.3883 -0.00338746 10.4431 0.001407C10.4978 0.00620145 10.5511 0.0231807 10.5999 0.0513413C11.6084 0.582003 12.4623 1.41875 13.0637 2.46561C13.665 3.51247 13.9895 4.72705 13.9997 5.97003C14.01 7.21301 13.7058 8.43405 13.1219 9.49311C12.538 10.5522 11.6981 11.4063 10.6985 11.9577C10.6356 11.9901 10.5663 12.0043 10.4972 11.9989Z" fill="#87888C"/>
<path d="M7.1111 12C6.9938 12.0001 6.87765 11.9778 6.76933 11.9346C6.66102 11.8913 6.56268 11.8278 6.47999 11.7478L3.17333 8.55464H0.888887C0.653139 8.55464 0.427048 8.46457 0.260349 8.30424C0.0936503 8.14391 0 7.92645 0 7.69971V4.28C0 4.05326 0.0936503 3.83581 0.260349 3.67548C0.427048 3.51515 0.653139 3.42507 0.888887 3.42507H3.20888L6.46665 0.266115C6.5894 0.141836 6.74816 0.0559158 6.92231 0.0195073C7.09647 -0.0169011 7.27799 -0.0021163 7.4433 0.0619426C7.60861 0.126002 7.75008 0.236376 7.84935 0.378739C7.94862 0.521102 8.0011 0.688879 7.99998 0.86029V11.1194C7.99998 11.2889 7.94759 11.4546 7.84946 11.5954C7.75133 11.7362 7.6119 11.8458 7.44887 11.9102C7.34359 11.9614 7.22877 11.9919 7.1111 12ZM0.888887 4.28V7.69971H3.35999C3.4188 7.69995 3.47697 7.7114 3.53113 7.73342C3.5853 7.75543 3.63439 7.78756 3.67555 7.82795L7.1111 11.1451V0.86029L3.7111 4.15176C3.66994 4.19215 3.62085 4.22428 3.56669 4.2463C3.51252 4.26831 3.45435 4.27977 3.39555 4.28H0.888887Z" fill="#87888C"/>
</g>
</svg>
