<svg width="8" height="12" viewBox="0 0 8 12" fill="none" xmlns="http://www.w3.org/2000/svg">
<path id="Vector" d="M7.1111 12C6.9938 12.0001 6.87765 11.9778 6.76933 11.9346C6.66102 11.8913 6.56268 11.8278 6.47999 11.7478L3.17333 8.55464H0.888887C0.653139 8.55464 0.427048 8.46457 0.260349 8.30424C0.0936503 8.14391 0 7.92645 0 7.69971V4.28C0 4.05326 0.0936503 3.83581 0.260349 3.67548C0.427048 3.51515 0.653139 3.42507 0.888887 3.42507H3.20888L6.46665 0.266115C6.5894 0.141836 6.74816 0.0559158 6.92231 0.0195073C7.09647 -0.0169011 7.27799 -0.0021163 7.4433 0.0619426C7.60861 0.126002 7.75008 0.236376 7.84935 0.378739C7.94862 0.521102 8.0011 0.688879 7.99998 0.86029V11.1194C7.99998 11.2889 7.94759 11.4546 7.84946 11.5954C7.75133 11.7362 7.6119 11.8458 7.44887 11.9102C7.34359 11.9614 7.22877 11.9919 7.1111 12ZM0.888887 4.28V7.69971H3.35999C3.4188 7.69995 3.47697 7.7114 3.53113 7.73342C3.5853 7.75543 3.63439 7.78756 3.67555 7.82795L7.1111 11.1451V0.86029L3.7111 4.15176C3.66994 4.19215 3.62085 4.22428 3.56669 4.2463C3.51252 4.26831 3.45435 4.27977 3.39555 4.28H0.888887Z" fill="#87888C"/>
</svg>
