<svg width="18" height="12" viewBox="0 0 18 12" fill="none" xmlns="http://www.w3.org/2000/svg">
<g id="Vector">
<mask id="path-1-inside-1_739_615" fill="white">
<path d="M0 2C0 1.44772 0.447715 1 1 1H7C7.55228 1 8 1.44772 8 2V5C8 5.55228 7.55228 6 7 6H1C0.447715 6 0 5.55228 0 5V2Z"/>
<path d="M2 9C2 8.44772 2.44772 8 3 8H8C8.55228 8 9 8.44772 9 9V11C9 11.5523 8.55228 12 8 12H3C2.44772 12 2 11.5523 2 11V9Z"/>
<path d="M10.5 1C10.5 0.447715 10.9477 0 11.5 0H16.5C17.0523 0 17.5 0.447715 17.5 1V10C17.5 10.5523 17.0523 11 16.5 11H11.5C10.9477 11 10.5 10.5523 10.5 10V1Z"/>
</mask>
<path d="M0 2C0 1.44772 0.447715 1 1 1H7C7.55228 1 8 1.44772 8 2V5C8 5.55228 7.55228 6 7 6H1C0.447715 6 0 5.55228 0 5V2Z" stroke="#87888C" stroke-width="2" mask="url(#path-1-inside-1_739_615)"/>
<path d="M2 9C2 8.44772 2.44772 8 3 8H8C8.55228 8 9 8.44772 9 9V11C9 11.5523 8.55228 12 8 12H3C2.44772 12 2 11.5523 2 11V9Z" stroke="#87888C" stroke-width="2" mask="url(#path-1-inside-1_739_615)"/>
<path d="M10.5 1C10.5 0.447715 10.9477 0 11.5 0H16.5C17.0523 0 17.5 0.447715 17.5 1V10C17.5 10.5523 17.0523 11 16.5 11H11.5C10.9477 11 10.5 10.5523 10.5 10V1Z" stroke="#87888C" stroke-width="2" mask="url(#path-1-inside-1_739_615)"/>
</g>
</svg>
